# Blender 4.0.2
# www.blender.org
mtllib tramrail.mtl
o Cube
v -0.895028 0.007271 -1.000000
v -0.895028 0.007271 1.000000
v -1.000000 0.007271 -1.000000
v -1.000000 0.007271 1.000000
v -0.944787 0.195556 -1.000000
v -0.895028 0.106304 -1.000000
v -0.919908 0.183599 -1.000000
v -0.901694 0.150930 -1.000000
v -0.895028 0.106304 1.000000
v -0.944787 0.195556 1.000000
v -0.901694 0.150930 1.000000
v -0.919908 0.183599 1.000000
v -1.000000 0.106304 -1.000000
v -0.950241 0.195556 -1.000000
v -0.993334 0.150930 -1.000000
v -0.975120 0.183599 -1.000000
v -0.950241 0.195556 1.000000
v -1.000000 0.106304 1.000000
v -0.975120 0.183599 1.000000
v -0.993334 0.150930 1.000000
v 0.998786 0.007271 -1.000000
v 0.998786 0.007271 1.000000
v 0.893814 0.007271 -1.000000
v 0.893814 0.007271 1.000000
v 0.949027 0.195556 -1.000000
v 0.998786 0.106304 -1.000000
v 0.973906 0.183599 -1.000000
v 0.992120 0.150930 -1.000000
v 0.998786 0.106304 1.000000
v 0.949027 0.195556 1.000000
v 0.992120 0.150930 1.000000
v 0.973906 0.183599 1.000000
v 0.893814 0.106304 -1.000000
v 0.943573 0.195556 -1.000000
v 0.900480 0.150930 -1.000000
v 0.918694 0.183599 -1.000000
v 0.943573 0.195556 1.000000
v 0.893814 0.106304 1.000000
v 0.918694 0.183599 1.000000
v 0.900480 0.150930 1.000000
vn -0.0000 -0.0000 -1.0000
vn 1.0000 -0.0000 -0.0000
vn -0.0000 1.0000 -0.0000
vn -0.0000 -1.0000 -0.0000
vn -1.0000 -0.0000 -0.0000
vn -0.4332 -0.9013 -0.0000
vn -0.8734 -0.4870 -0.0000
vn -0.9890 -0.1477 -0.0000
vn 0.4332 -0.9013 -0.0000
vn 0.8734 -0.4870 -0.0000
vn 0.9890 -0.1477 -0.0000
vn -0.0000 -0.0000 1.0000
vt 0.375000 0.750000
vt 0.375000 1.000000
vt 0.506494 1.000000
vt 0.565747 0.984123
vt 0.609123 0.940747
vt 0.625000 0.881494
vt 0.625000 0.868506
vt 0.609123 0.809253
vt 0.565747 0.765877
vt 0.506494 0.750000
vt 0.375000 0.000000
vt 0.375000 0.250000
vt 0.506494 0.250000
vt 0.506494 0.000000
vt 0.125000 0.500000
vt 0.125000 0.750000
vt 0.375000 0.500000
vt 0.743506 0.500000
vt 0.743506 0.750000
vt 0.756494 0.750000
vt 0.756494 0.500000
vt 0.506494 0.500000
vt 0.684253 0.500000
vt 0.684253 0.750000
vt 0.565747 0.500000
vt 0.565747 0.750000
vt 0.875000 0.750000
vt 0.875000 0.500000
vt 0.625000 0.000000
vt 0.565747 0.000000
vt 0.565747 0.250000
vt 0.625000 0.250000
vt 0.565747 0.484123
vt 0.609123 0.440747
vt 0.625000 0.381494
vt 0.625000 0.368506
vt 0.609123 0.309253
vt 0.565747 0.265877
s 0
usemtl Material
f 2/1/1 4/2/1 18/3/1 20/4/1 19/5/1 17/6/1 10/7/1 12/8/1 11/9/1 9/10/1
f 4/11/2 3/12/2 13/13/2 18/14/2
f 3/15/3 4/16/3 2/1/3 1/17/3
f 5/18/4 10/19/4 17/20/4 14/21/4
f 1/17/5 2/1/5 9/10/5 6/22/5
f 5/18/6 7/23/6 12/24/6 10/19/6
f 7/23/7 8/25/7 11/26/7 12/24/7
f 8/25/8 6/22/8 9/10/8 11/26/8
f 17/20/9 19/27/9 16/28/9 14/21/9
f 19/29/10 20/30/10 15/31/10 16/32/10
f 20/30/11 18/14/11 13/13/11 15/31/11
f 3/12/12 1/17/12 6/22/12 8/33/12 7/34/12 5/35/12 14/36/12 16/37/12 15/38/12 13/13/12
f 22/1/1 24/2/1 38/3/1 40/4/1 39/5/1 37/6/1 30/7/1 32/8/1 31/9/1 29/10/1
f 24/11/2 23/12/2 33/13/2 38/14/2
f 23/15/3 24/16/3 22/1/3 21/17/3
f 25/18/4 30/19/4 37/20/4 34/21/4
f 21/17/5 22/1/5 29/10/5 26/22/5
f 25/18/6 27/23/6 32/24/6 30/19/6
f 27/23/7 28/25/7 31/26/7 32/24/7
f 28/25/8 26/22/8 29/10/8 31/26/8
f 37/20/9 39/27/9 36/28/9 34/21/9
f 39/29/10 40/30/10 35/31/10 36/32/10
f 40/30/11 38/14/11 33/13/11 35/31/11
f 23/12/12 21/17/12 26/22/12 28/33/12 27/34/12 25/35/12 34/36/12 36/37/12 35/38/12 33/13/12
