# Blender 3.6.5
# www.blender.org
mtllib arrow.mtl
o Cylinder
v 0.000000 2.652141 0.258354
v 0.000000 -0.009291 0.258354
v 0.050402 2.652141 0.253390
v 0.050402 -0.009291 0.253390
v 0.098868 2.652141 0.238688
v 0.098868 -0.009291 0.238688
v 0.143534 2.652141 0.214814
v 0.143534 -0.009291 0.214813
v 0.182684 2.652141 0.182684
v 0.182684 -0.009291 0.182684
v 0.214814 2.652141 0.143534
v 0.214814 -0.009291 0.143534
v 0.238688 2.652141 0.098868
v 0.238688 -0.009291 0.098868
v 0.253390 2.652141 0.050403
v 0.253390 -0.009291 0.050402
v 0.258354 2.652141 0.000000
v 0.258354 -0.009291 -0.000000
v 0.253390 2.652141 -0.050402
v 0.253390 -0.009291 -0.050403
v 0.238688 2.652141 -0.098868
v 0.238688 -0.009291 -0.098868
v 0.214814 2.652141 -0.143534
v 0.214814 -0.009291 -0.143534
v 0.182684 2.652141 -0.182684
v 0.182684 -0.009291 -0.182684
v 0.143534 2.652141 -0.214813
v 0.143534 -0.009291 -0.214814
v 0.098868 2.652141 -0.238688
v 0.098868 -0.009291 -0.238688
v 0.050402 2.652141 -0.253390
v 0.050402 -0.009291 -0.253390
v 0.000000 2.652141 -0.258354
v 0.000000 -0.009291 -0.258354
v -0.050402 2.652141 -0.253390
v -0.050402 -0.009291 -0.253390
v -0.098868 2.652141 -0.238688
v -0.098868 -0.009291 -0.238688
v -0.143534 2.652141 -0.214813
v -0.143534 -0.009291 -0.214814
v -0.182684 2.652141 -0.182684
v -0.182684 -0.009291 -0.182684
v -0.214814 2.652141 -0.143534
v -0.214814 -0.009291 -0.143534
v -0.238688 2.652141 -0.098868
v -0.238688 -0.009291 -0.098868
v -0.253390 2.652141 -0.050402
v -0.253390 -0.009291 -0.050403
v -0.258354 2.652141 0.000000
v -0.258354 -0.009291 -0.000000
v -0.253390 2.652141 0.050403
v -0.253390 -0.009291 0.050402
v -0.238688 2.652141 0.098868
v -0.238688 -0.009291 0.098868
v -0.214814 2.652141 0.143534
v -0.214814 -0.009291 0.143534
v -0.182684 2.652141 0.182684
v -0.182684 -0.009291 0.182684
v -0.143534 2.652141 0.214814
v -0.143534 -0.009291 0.214813
v -0.098868 2.652141 0.238688
v -0.098868 -0.009291 0.238688
v -0.050402 2.652141 0.253390
v -0.050402 -0.009291 0.253390
v -0.005292 2.500254 0.508365
v -0.101664 2.500254 0.498873
v -0.194332 2.500254 0.470762
v -0.279736 2.500254 0.425113
v -0.354593 2.500254 0.363679
v -0.416026 2.500254 0.288822
v -0.461675 2.500254 0.203419
v -0.489786 2.500254 0.110750
v -0.499278 2.500254 0.014378
v -0.489786 2.500254 -0.081994
v -0.461675 2.500254 -0.174662
v -0.416026 2.500254 -0.260066
v -0.354593 2.500254 -0.334923
v -0.279736 2.500254 -0.396356
v -0.194332 2.500254 -0.442005
v -0.101664 2.500254 -0.470116
v -0.005292 2.500254 -0.479608
v 0.091080 2.500254 -0.470116
v 0.183749 2.500254 -0.442005
v 0.269152 2.500254 -0.396356
v 0.344009 2.500254 -0.334923
v 0.405443 2.500254 -0.260066
v 0.451092 2.500254 -0.174662
v 0.479203 2.500254 -0.081994
v 0.488695 2.500254 0.014378
v 0.479203 2.500254 0.110750
v 0.451092 2.500254 0.203419
v 0.405443 2.500254 0.288822
v 0.344009 2.500254 0.363679
v 0.269152 2.500254 0.425113
v 0.183749 2.500254 0.470762
v 0.091080 2.500254 0.498873
v -0.005292 3.292830 0.014378
vn 0.0980 -0.0000 0.9952
vn 0.2903 -0.0000 0.9569
vn 0.4714 -0.0000 0.8819
vn 0.6344 -0.0000 0.7730
vn 0.7730 -0.0000 0.6344
vn 0.8819 -0.0000 0.4714
vn 0.9569 -0.0000 0.2903
vn 0.9952 -0.0000 0.0980
vn 0.9952 -0.0000 -0.0980
vn 0.9569 -0.0000 -0.2903
vn 0.8819 -0.0000 -0.4714
vn 0.7730 -0.0000 -0.6344
vn 0.6344 -0.0000 -0.7730
vn 0.4714 -0.0000 -0.8819
vn 0.2903 -0.0000 -0.9569
vn 0.0980 -0.0000 -0.9952
vn -0.0980 -0.0000 -0.9952
vn -0.2903 -0.0000 -0.9569
vn -0.4714 -0.0000 -0.8819
vn -0.6344 -0.0000 -0.7730
vn -0.7730 -0.0000 -0.6344
vn -0.8819 -0.0000 -0.4714
vn -0.9569 -0.0000 -0.2903
vn -0.9952 -0.0000 -0.0980
vn -0.9952 -0.0000 0.0980
vn -0.9569 -0.0000 0.2903
vn -0.8819 -0.0000 0.4714
vn -0.7730 -0.0000 0.6344
vn -0.6344 -0.0000 0.7730
vn -0.4714 -0.0000 0.8819
vn -0.0000 -1.0000 -0.0000
vn -0.2903 -0.0000 0.9569
vn -0.0980 -0.0000 0.9952
vn -0.0000 1.0000 -0.0000
vn -0.0833 0.5271 0.8457
vn -0.2467 0.5271 0.8132
vn -0.4006 0.5271 0.7495
vn -0.5391 0.5271 0.6569
vn -0.6569 0.5271 0.5391
vn -0.7495 0.5271 0.4006
vn -0.8132 0.5271 0.2467
vn -0.8457 0.5271 0.0833
vn -0.8457 0.5271 -0.0833
vn -0.8132 0.5271 -0.2467
vn -0.7495 0.5271 -0.4006
vn -0.6569 0.5271 -0.5391
vn -0.5391 0.5271 -0.6569
vn -0.4006 0.5271 -0.7495
vn -0.2467 0.5271 -0.8132
vn -0.0833 0.5271 -0.8457
vn 0.0833 0.5271 -0.8457
vn 0.2467 0.5271 -0.8132
vn 0.4006 0.5271 -0.7495
vn 0.5391 0.5271 -0.6569
vn 0.6569 0.5271 -0.5391
vn 0.7495 0.5271 -0.4006
vn 0.8132 0.5271 -0.2467
vn 0.8457 0.5271 -0.0833
vn 0.8457 0.5271 0.0833
vn 0.8132 0.5271 0.2467
vn 0.7495 0.5271 0.4006
vn 0.6569 0.5271 0.5391
vn 0.5391 0.5271 0.6569
vn 0.4006 0.5271 0.7495
vn 0.2467 0.5271 0.8132
vn 0.0833 0.5271 0.8457
vt -0.000000 0.000000
vt 0.343553 -0.000000
vt 0.343553 0.021472
vt -0.000000 0.021472
vt 0.343553 0.042944
vt -0.000000 0.042944
vt 0.343553 0.064416
vt -0.000000 0.064416
vt 0.343553 0.085888
vt -0.000000 0.085888
vt 0.343553 0.107360
vt -0.000000 0.107360
vt 0.343553 0.128833
vt -0.000000 0.128833
vt 0.343553 0.150305
vt -0.000000 0.150305
vt 0.343553 0.171777
vt -0.000000 0.171777
vt 0.343553 0.193249
vt -0.000000 0.193249
vt 0.343553 0.214721
vt -0.000000 0.214721
vt 0.343553 0.236193
vt -0.000000 0.236193
vt 0.343553 0.257665
vt 0.000000 0.257665
vt 0.343553 0.279137
vt 0.000000 0.279137
vt 0.343553 0.300609
vt 0.000000 0.300609
vt 0.343553 0.322081
vt 0.000000 0.322081
vt 0.343553 0.343553
vt 0.000000 0.343553
vt 0.343553 0.365026
vt 0.000000 0.365026
vt 0.343553 0.386498
vt 0.000000 0.386498
vt 0.343553 0.407970
vt 0.000000 0.407970
vt 0.343553 0.429442
vt 0.000000 0.429442
vt 0.343553 0.450914
vt 0.000000 0.450914
vt 0.343553 0.472386
vt 0.000000 0.472386
vt 0.343553 0.493858
vt 0.000000 0.493858
vt 0.343553 0.515330
vt 0.000000 0.515330
vt 0.343553 0.536802
vt 0.000000 0.536802
vt 0.343553 0.558274
vt 0.000000 0.558274
vt 0.343553 0.579746
vt 0.000000 0.579746
vt 0.343554 0.601219
vt 0.000000 0.601219
vt 0.343554 0.622691
vt 0.000000 0.622691
vt 0.343554 0.644163
vt 0.000000 0.644163
vt 0.635139 0.387720
vt 0.653099 0.414599
vt 0.665470 0.444465
vt 0.671777 0.476171
vt 0.671777 0.508498
vt 0.665470 0.540204
vt 0.653099 0.570071
vt 0.635139 0.596950
vt 0.612280 0.619809
vt 0.585401 0.637769
vt 0.555535 0.650140
vt 0.523829 0.656446
vt 0.491501 0.656446
vt 0.459795 0.650140
vt 0.429929 0.637769
vt 0.403050 0.619809
vt 0.380191 0.596950
vt 0.362231 0.570071
vt 0.349860 0.540204
vt 0.343553 0.508498
vt 0.343554 0.476171
vt 0.349860 0.444465
vt 0.362231 0.414599
vt 0.380191 0.387720
vt 0.403050 0.364861
vt 0.429929 0.346901
vt 0.459796 0.334530
vt 0.491502 0.328223
vt 0.523829 0.328223
vt 0.555535 0.334530
vt 0.585401 0.346901
vt 0.612280 0.364861
vt 0.343554 0.665635
vt 0.000000 0.665635
vt 0.343554 0.687107
vt 0.000000 0.687107
vt 0.585401 0.309545
vt 0.612280 0.291585
vt 0.635139 0.268727
vt 0.653099 0.241848
vt 0.665470 0.211981
vt 0.671777 0.180275
vt 0.671777 0.147948
vt 0.665470 0.116242
vt 0.653099 0.086376
vt 0.635139 0.059496
vt 0.612280 0.036638
vt 0.585401 0.018678
vt 0.555535 0.006307
vt 0.523829 -0.000000
vt 0.491501 -0.000000
vt 0.459795 0.006307
vt 0.429929 0.018678
vt 0.403050 0.036638
vt 0.380191 0.059497
vt 0.362231 0.086376
vt 0.349860 0.116242
vt 0.343553 0.147948
vt 0.343553 0.180275
vt 0.349860 0.211981
vt 0.362231 0.241848
vt 0.380191 0.268727
vt 0.403050 0.291585
vt 0.429929 0.309545
vt 0.459796 0.321916
vt 0.491502 0.328223
vt 0.523829 0.328223
vt 0.555535 0.321916
vt 0.981322 0.414599
vt 0.835888 0.492335
vt 0.963362 0.387720
vt 0.940503 0.364861
vt 0.913624 0.346901
vt 0.883758 0.334530
vt 0.852052 0.328223
vt 0.819725 0.328223
vt 0.788019 0.334530
vt 0.758152 0.346901
vt 0.731273 0.364861
vt 0.708415 0.387720
vt 0.690455 0.414599
vt 0.678083 0.444465
vt 0.671777 0.476171
vt 0.671777 0.508498
vt 0.678084 0.540204
vt 0.690455 0.570071
vt 0.708415 0.596950
vt 0.731273 0.619809
vt 0.758152 0.637769
vt 0.788019 0.650140
vt 0.819725 0.656446
vt 0.852052 0.656446
vt 0.883758 0.650140
vt 0.913624 0.637769
vt 0.940503 0.619808
vt 0.963362 0.596950
vt 0.981322 0.570071
vt 0.993693 0.540204
vt 1.000000 0.508498
vt 1.000000 0.476171
vt 0.981322 0.086375
vt 0.963362 0.059496
vt 0.940503 0.036638
vt 0.913624 0.018678
vt 0.883758 0.006307
vt 0.852052 -0.000000
vt 0.819725 -0.000000
vt 0.788019 0.006307
vt 0.758152 0.018678
vt 0.731273 0.036638
vt 0.708414 0.059497
vt 0.690454 0.086376
vt 0.678083 0.116242
vt 0.671777 0.147948
vt 0.671777 0.180275
vt 0.678083 0.211981
vt 0.690455 0.241848
vt 0.708415 0.268727
vt 0.731273 0.291585
vt 0.758152 0.309545
vt 0.788019 0.321916
vt 0.819725 0.328223
vt 0.852052 0.328223
vt 0.883758 0.321916
vt 0.913624 0.309545
vt 0.940503 0.291585
vt 0.963362 0.268726
vt 0.981322 0.241847
vt 0.993693 0.211981
vt 1.000000 0.180275
vt 1.000000 0.147948
vt 0.993693 0.116242
vt 0.993693 0.444465
s 0
usemtl Material.001
f 1/1/1 2/2/1 4/3/1 3/4/1
f 3/4/2 4/3/2 6/5/2 5/6/2
f 5/6/3 6/5/3 8/7/3 7/8/3
f 7/8/4 8/7/4 10/9/4 9/10/4
f 9/10/5 10/9/5 12/11/5 11/12/5
f 11/12/6 12/11/6 14/13/6 13/14/6
f 13/14/7 14/13/7 16/15/7 15/16/7
f 15/16/8 16/15/8 18/17/8 17/18/8
f 17/18/9 18/17/9 20/19/9 19/20/9
f 19/20/10 20/19/10 22/21/10 21/22/10
f 21/22/11 22/21/11 24/23/11 23/24/11
f 23/24/12 24/23/12 26/25/12 25/26/12
f 25/26/13 26/25/13 28/27/13 27/28/13
f 27/28/14 28/27/14 30/29/14 29/30/14
f 29/30/15 30/29/15 32/31/15 31/32/15
f 31/32/16 32/31/16 34/33/16 33/34/16
f 33/34/17 34/33/17 36/35/17 35/36/17
f 35/36/18 36/35/18 38/37/18 37/38/18
f 37/38/19 38/37/19 40/39/19 39/40/19
f 39/40/20 40/39/20 42/41/20 41/42/20
f 41/42/21 42/41/21 44/43/21 43/44/21
f 43/44/22 44/43/22 46/45/22 45/46/22
f 45/46/23 46/45/23 48/47/23 47/48/23
f 47/48/24 48/47/24 50/49/24 49/50/24
f 49/50/25 50/49/25 52/51/25 51/52/25
f 51/52/26 52/51/26 54/53/26 53/54/26
f 53/54/27 54/53/27 56/55/27 55/56/27
f 55/56/28 56/55/28 58/57/28 57/58/28
f 57/58/29 58/57/29 60/59/29 59/60/29
f 59/60/30 60/59/30 62/61/30 61/62/30
f 4/63/31 2/64/31 64/65/31 62/66/31 60/67/31 58/68/31 56/69/31 54/70/31 52/71/31 50/72/31 48/73/31 46/74/31 44/75/31 42/76/31 40/77/31 38/78/31 36/79/31 34/80/31 32/81/31 30/82/31 28/83/31 26/84/31 24/85/31 22/86/31 20/87/31 18/88/31 16/89/31 14/90/31 12/91/31 10/92/31 8/93/31 6/94/31
f 61/62/32 62/61/32 64/95/32 63/96/32
f 63/96/33 64/95/33 2/97/33 1/98/33
f 1/99/34 3/100/34 5/101/34 7/102/34 9/103/34 11/104/34 13/105/34 15/106/34 17/107/34 19/108/34 21/109/34 23/110/34 25/111/34 27/112/34 29/113/34 31/114/34 33/115/34 35/116/34 37/117/34 39/118/34 41/119/34 43/120/34 45/121/34 47/122/34 49/123/34 51/124/34 53/125/34 55/126/34 57/127/34 59/128/34 61/129/34 63/130/34
f 65/131/35 97/132/35 66/133/35
f 66/133/36 97/132/36 67/134/36
f 67/134/37 97/132/37 68/135/37
f 68/135/38 97/132/38 69/136/38
f 69/136/39 97/132/39 70/137/39
f 70/137/40 97/132/40 71/138/40
f 71/138/41 97/132/41 72/139/41
f 72/139/42 97/132/42 73/140/42
f 73/140/43 97/132/43 74/141/43
f 74/141/44 97/132/44 75/142/44
f 75/142/45 97/132/45 76/143/45
f 76/143/46 97/132/46 77/144/46
f 77/144/47 97/132/47 78/145/47
f 78/145/48 97/132/48 79/146/48
f 79/146/49 97/132/49 80/147/49
f 80/147/50 97/132/50 81/148/50
f 81/148/51 97/132/51 82/149/51
f 82/149/52 97/132/52 83/150/52
f 83/150/53 97/132/53 84/151/53
f 84/151/54 97/132/54 85/152/54
f 85/152/55 97/132/55 86/153/55
f 86/153/56 97/132/56 87/154/56
f 87/154/57 97/132/57 88/155/57
f 88/155/58 97/132/58 89/156/58
f 89/156/59 97/132/59 90/157/59
f 90/157/60 97/132/60 91/158/60
f 91/158/61 97/132/61 92/159/61
f 92/159/62 97/132/62 93/160/62
f 93/160/63 97/132/63 94/161/63
f 94/161/64 97/132/64 95/162/64
f 65/163/31 66/164/31 67/165/31 68/166/31 69/167/31 70/168/31 71/169/31 72/170/31 73/171/31 74/172/31 75/173/31 76/174/31 77/175/31 78/176/31 79/177/31 80/178/31 81/179/31 82/180/31 83/181/31 84/182/31 85/183/31 86/184/31 87/185/31 88/186/31 89/187/31 90/188/31 91/189/31 92/190/31 93/191/31 94/192/31 95/193/31 96/194/31
f 95/162/65 97/132/65 96/195/65
f 96/195/66 97/132/66 65/131/66
