# Blender 3.6.5
# www.blender.org
mtllib cone.mtl
o Cone
v -0.005292 0.766197 -0.508364
v -0.101664 0.766197 -0.498873
v -0.194332 0.766197 -0.470762
v -0.279736 0.766197 -0.425113
v -0.354593 0.766197 -0.363679
v -0.416026 0.766197 -0.288822
v -0.461675 0.766197 -0.203419
v -0.489786 0.766197 -0.110750
v -0.499278 0.766197 -0.014378
v -0.489786 0.766197 0.081994
v -0.461675 0.766197 0.174662
v -0.416026 0.766197 0.260066
v -0.354593 0.766197 0.334923
v -0.279736 0.766197 0.396356
v -0.194332 0.766197 0.442006
v -0.101664 0.766197 0.470116
v -0.005292 0.766197 0.479608
v 0.091080 0.766197 0.470116
v 0.183749 0.766197 0.442006
v 0.269152 0.766197 0.396356
v 0.344009 0.766197 0.334923
v 0.405443 0.766197 0.260066
v 0.451092 0.766197 0.174662
v 0.479203 0.766197 0.081994
v 0.488695 0.766197 -0.014378
v 0.479203 0.766197 -0.110750
v 0.451092 0.766197 -0.203419
v 0.405443 0.766197 -0.288822
v 0.344009 0.766197 -0.363679
v 0.269152 0.766197 -0.425113
v 0.183749 0.766197 -0.470762
v 0.091080 0.766197 -0.498873
v -0.005292 -0.026379 -0.014378
vn -0.0833 -0.5271 -0.8457
vn -0.2467 -0.5271 -0.8132
vn -0.4006 -0.5271 -0.7495
vn -0.5391 -0.5271 -0.6569
vn -0.6569 -0.5271 -0.5391
vn -0.7495 -0.5271 -0.4006
vn -0.8132 -0.5271 -0.2467
vn -0.8457 -0.5271 -0.0833
vn -0.8457 -0.5271 0.0833
vn -0.8132 -0.5271 0.2467
vn -0.7495 -0.5271 0.4006
vn -0.6569 -0.5271 0.5391
vn -0.5391 -0.5271 0.6569
vn -0.4006 -0.5271 0.7495
vn -0.2467 -0.5271 0.8132
vn -0.0833 -0.5271 0.8457
vn 0.0833 -0.5271 0.8457
vn 0.2467 -0.5271 0.8132
vn 0.4006 -0.5271 0.7495
vn 0.5391 -0.5271 0.6569
vn 0.6569 -0.5271 0.5391
vn 0.7495 -0.5271 0.4006
vn 0.8132 -0.5271 0.2467
vn 0.8457 -0.5271 0.0833
vn 0.8457 -0.5271 -0.0833
vn 0.8132 -0.5271 -0.2467
vn 0.7495 -0.5271 -0.4006
vn 0.6569 -0.5271 -0.5391
vn 0.5391 -0.5271 -0.6569
vn 0.4006 -0.5271 -0.7495
vn -0.0000 1.0000 -0.0000
vn 0.2467 -0.5271 -0.8132
vn 0.0833 -0.5271 -0.8457
vt 0.822922 0.490393
vt 0.750000 0.250000
vt 0.868419 0.471547
vt 0.909366 0.444188
vt 0.944188 0.409366
vt 0.971547 0.368419
vt 0.990393 0.322922
vt 1.000000 0.274623
vt 1.000000 0.225377
vt 0.990393 0.177078
vt 0.971547 0.131580
vt 0.944188 0.090634
vt 0.909366 0.055812
vt 0.868419 0.028453
vt 0.822922 0.009607
vt 0.774623 -0.000000
vt 0.725377 -0.000000
vt 0.677078 0.009607
vt 0.631580 0.028453
vt 0.590634 0.055812
vt 0.555812 0.090634
vt 0.528453 0.131581
vt 0.509607 0.177078
vt 0.500000 0.225377
vt 0.500000 0.274623
vt 0.509607 0.322922
vt 0.528453 0.368419
vt 0.555812 0.409366
vt 0.590634 0.444188
vt 0.631581 0.471547
vt 0.677078 0.490393
vt 0.725377 0.500000
vt 0.090634 0.444188
vt 0.131581 0.471547
vt 0.177078 0.490393
vt 0.225377 0.500000
vt 0.274623 0.500000
vt 0.322922 0.490393
vt 0.368420 0.471547
vt 0.409366 0.444188
vt 0.444188 0.409366
vt 0.471547 0.368419
vt 0.490393 0.322922
vt 0.500000 0.274623
vt 0.500000 0.225377
vt 0.490393 0.177078
vt 0.471547 0.131580
vt 0.444188 0.090634
vt 0.409366 0.055812
vt 0.368419 0.028453
vt 0.322922 0.009607
vt 0.274623 -0.000000
vt 0.225377 0.000000
vt 0.177078 0.009607
vt 0.131580 0.028453
vt 0.090634 0.055812
vt 0.055812 0.090634
vt 0.028453 0.131581
vt 0.009607 0.177078
vt 0.000000 0.225377
vt 0.000000 0.274623
vt 0.009607 0.322922
vt 0.028453 0.368420
vt 0.055812 0.409366
vt 0.774623 0.500000
s 0
usemtl Material.001
f 1/1/1 33/2/1 2/3/1
f 2/3/2 33/2/2 3/4/2
f 3/4/3 33/2/3 4/5/3
f 4/5/4 33/2/4 5/6/4
f 5/6/5 33/2/5 6/7/5
f 6/7/6 33/2/6 7/8/6
f 7/8/7 33/2/7 8/9/7
f 8/9/8 33/2/8 9/10/8
f 9/10/9 33/2/9 10/11/9
f 10/11/10 33/2/10 11/12/10
f 11/12/11 33/2/11 12/13/11
f 12/13/12 33/2/12 13/14/12
f 13/14/13 33/2/13 14/15/13
f 14/15/14 33/2/14 15/16/14
f 15/16/15 33/2/15 16/17/15
f 16/17/16 33/2/16 17/18/16
f 17/18/17 33/2/17 18/19/17
f 18/19/18 33/2/18 19/20/18
f 19/20/19 33/2/19 20/21/19
f 20/21/20 33/2/20 21/22/20
f 21/22/21 33/2/21 22/23/21
f 22/23/22 33/2/22 23/24/22
f 23/24/23 33/2/23 24/25/23
f 24/25/24 33/2/24 25/26/24
f 25/26/25 33/2/25 26/27/25
f 26/27/26 33/2/26 27/28/26
f 27/28/27 33/2/27 28/29/27
f 28/29/28 33/2/28 29/30/28
f 29/30/29 33/2/29 30/31/29
f 30/31/30 33/2/30 31/32/30
f 1/33/31 2/34/31 3/35/31 4/36/31 5/37/31 6/38/31 7/39/31 8/40/31 9/41/31 10/42/31 11/43/31 12/44/31 13/45/31 14/46/31 15/47/31 16/48/31 17/49/31 18/50/31 19/51/31 20/52/31 21/53/31 22/54/31 23/55/31 24/56/31 25/57/31 26/58/31 27/59/31 28/60/31 29/61/31 30/62/31 31/63/31 32/64/31
f 31/32/32 33/2/32 32/65/32
f 32/65/33 33/2/33 1/1/33
